<svg width="24" height="89" viewBox="0 0 24 89" fill="none" xmlns="http://www.w3.org/2000/svg">
<path d="M14 9C14 8.44772 13.5523 8 13 8C12.4477 8 12 8.44772 12 9H14ZM12.2929 79.7071C12.6834 80.0976 13.3166 80.0976 13.7071 79.7071L20.0711 73.3431C20.4616 72.9526 20.4616 72.3195 20.0711 71.9289C19.6805 71.5384 19.0474 71.5384 18.6569 71.9289L13 77.5858L7.34315 71.9289C6.95262 71.5384 6.31946 71.5384 5.92893 71.9289C5.53841 72.3195 5.53841 72.9526 5.92893 73.3431L12.2929 79.7071ZM12 9L12 79H14L14 9H12Z" fill="#6D31D0"/>
</svg>
