<svg width="199" height="42" viewBox="0 0 199 42" fill="none" xmlns="http://www.w3.org/2000/svg">
<rect x="1" y="1" width="10" height="40" rx="2" fill="#FF00A8" stroke="white" stroke-width="0.5"/>
<rect x="188" y="1" width="10" height="40" rx="2" fill="#FF00A8" stroke="white" stroke-width="0.5"/>
<rect x="11" y="1" width="177" height="40" rx="2" fill="#FF00A8" stroke="white" stroke-width="0.5"/>
<path d="M48.8 15.48L47.48 18.54C46.32 21.2467 45.4067 23.4133 44.74 25.04C44.0733 26.6667 43.46 28.32 42.9 30H36.92C36.3733 28.3467 35.7667 26.7133 35.1 25.1C34.4467 23.4733 33.5667 21.3933 32.46 18.86C32.2733 18.4333 31.7867 17.3067 31 15.48H36.56C36.96 16.7733 37.5533 18.4333 38.34 20.46C39.0333 22.2467 39.5933 23.7933 40.02 25.1C40.3 24.18 40.6333 23.2 41.02 22.16C41.42 21.1067 41.66 20.4667 41.74 20.24C42.5133 18.2 43.08 16.6133 43.44 15.48H48.8ZM52.5464 17.9C51.7064 17.9 51.0797 17.6933 50.6664 17.28C50.2664 16.8667 50.0664 16.3267 50.0664 15.66C50.0664 15.0067 50.2664 14.4667 50.6664 14.04C51.0797 13.6133 51.7064 13.4 52.5464 13.4C53.3464 13.4 53.9597 13.62 54.3864 14.06C54.8131 14.4867 55.0264 15.02 55.0264 15.66C55.0264 16.3267 54.8197 16.8667 54.4064 17.28C53.9931 17.6933 53.3731 17.9 52.5464 17.9ZM50.2264 30C50.3197 27.8533 50.3664 26.08 50.3664 24.68C50.3664 23.0133 50.3131 21.1467 50.2064 19.08H55.0064C54.8997 21.0667 54.8464 22.9333 54.8464 24.68C54.8464 26.1467 54.8931 27.92 54.9864 30H50.2264ZM65.8795 22.66C64.6529 22.58 63.5329 22.52 62.5195 22.48L62.4995 24.6C62.4995 25.32 62.6529 25.8867 62.9595 26.3C63.2795 26.7 63.8395 26.9 64.6395 26.9C64.9462 26.9 65.2395 26.8733 65.5195 26.82C65.4662 27.3133 65.4395 27.8133 65.4395 28.32C65.4395 28.56 65.4529 29.1067 65.4795 29.96C64.8929 30.0667 64.3995 30.1333 63.9995 30.16C63.5995 30.1867 63.0795 30.2 62.4395 30.2C60.8795 30.2 59.7729 29.8267 59.1195 29.08C58.4795 28.32 58.1595 27.2667 58.1595 25.92L58.1795 22.54C57.5529 22.5667 56.8995 22.6067 56.2195 22.66V19.12C56.9129 19.12 57.4995 18.9 57.9795 18.46C58.4595 18.02 58.7462 17.4933 58.8395 16.88H64.2795C63.5995 17.8133 62.8462 18.56 62.0195 19.12H65.8795V22.66ZM79.8934 26.68C79.8934 27.1333 79.9468 27.4533 80.0534 27.64C80.1601 27.8267 80.3734 27.96 80.6934 28.04L80.6134 29.92C80.1868 29.9867 79.8134 30.0333 79.4934 30.06C79.1868 30.0867 78.7734 30.1 78.2534 30.1C77.1068 30.1 76.3468 29.8467 75.9734 29.34C75.6001 28.82 75.4134 28.16 75.4134 27.36V26.86C75.0268 27.9533 74.4601 28.7667 73.7134 29.3C72.9801 29.8333 72.0401 30.1 70.8934 30.1C69.5601 30.1 68.5534 29.8333 67.8734 29.3C67.2068 28.7667 66.8734 27.9733 66.8734 26.92C66.8734 26.0533 67.1601 25.3733 67.7334 24.88C68.3068 24.3867 69.1934 24.0467 70.3934 23.86C69.3801 23.14 68.3668 22.5133 67.3534 21.98C68.1534 20.9667 69.0668 20.2 70.0934 19.68C71.1201 19.1467 72.3668 18.88 73.8334 18.88C75.8868 18.88 77.4068 19.3267 78.3934 20.22C79.3934 21.1 79.8934 22.46 79.8934 24.3V26.68ZM74.2534 22.4C73.5734 22.4 72.9734 22.5133 72.4534 22.74C71.9334 22.9667 71.4668 23.3067 71.0534 23.76C71.8534 23.6667 72.8534 23.62 74.0534 23.62C74.5468 23.62 74.8934 23.56 75.0934 23.44C75.2934 23.32 75.3934 23.1667 75.3934 22.98C75.3934 22.82 75.2934 22.6867 75.0934 22.58C74.8934 22.46 74.6134 22.4 74.2534 22.4ZM72.1534 26.84C72.9001 26.84 73.5734 26.7 74.1734 26.42C74.7734 26.1267 75.1868 25.7467 75.4134 25.28V24.76C75.0934 24.92 74.7401 25.0467 74.3534 25.14C73.9668 25.22 73.5001 25.3 72.9534 25.38L72.2334 25.5C71.4868 25.6467 71.1134 25.9 71.1134 26.26C71.1134 26.6467 71.4601 26.84 72.1534 26.84ZM101.982 15.46V22.52C101.982 25.0133 101.335 26.92 100.042 28.24C98.7616 29.5467 96.7282 30.2 93.9416 30.2C92.3416 30.2 90.8616 29.9667 89.5016 29.5C88.1549 29.0333 86.9549 28.4267 85.9016 27.68C86.1549 26.8533 86.3616 26.06 86.5216 25.3C86.6816 24.54 86.8016 23.7067 86.8816 22.8C88.2549 23.9067 89.5216 24.6733 90.6816 25.1C91.8416 25.5267 92.9482 25.74 94.0016 25.74C95.0949 25.74 95.8749 25.4933 96.3416 25C96.8082 24.5067 97.0482 23.66 97.0616 22.46V20.94C97.0616 18.78 97.0016 16.9533 96.8816 15.46H101.982ZM114.157 25H107.637C107.744 25.5867 108.004 26.0667 108.417 26.44C108.844 26.8 109.444 26.98 110.217 26.98C110.777 26.98 111.304 26.8733 111.797 26.66C112.291 26.4333 112.684 26.12 112.977 25.72C113.871 26.16 115.057 26.6333 116.537 27.14C116.124 28.0733 115.371 28.82 114.277 29.38C113.197 29.9267 111.784 30.2 110.037 30.2C107.771 30.2 106.091 29.68 104.997 28.64C103.917 27.5867 103.377 26.2067 103.377 24.5C103.377 22.8333 103.917 21.48 104.997 20.44C106.077 19.4 107.757 18.88 110.037 18.88C111.397 18.88 112.577 19.1067 113.577 19.56C114.577 20.0133 115.344 20.6467 115.877 21.46C116.411 22.26 116.677 23.18 116.677 24.22C116.677 24.5667 116.664 24.8267 116.637 25H114.157ZM110.317 21.9C109.651 21.9 109.104 22.0267 108.677 22.28C108.251 22.5333 107.951 22.88 107.777 23.32H112.497C112.337 22.8933 112.077 22.5533 111.717 22.3C111.357 22.0333 110.891 21.9 110.317 21.9ZM122.77 22C122.756 22.8 122.75 24.0267 122.75 25.68C122.75 27.6667 122.763 29.1067 122.79 30H118.07L118.09 27.74C118.116 25.26 118.13 23.3467 118.13 22C118.13 20.72 118.116 18.9067 118.09 16.56L118.07 14.4H122.79C122.763 16.2933 122.75 17.84 122.75 19.04C122.75 20.3733 122.756 21.36 122.77 22ZM129.098 22C129.084 22.8 129.078 24.0267 129.078 25.68C129.078 27.6667 129.091 29.1067 129.118 30H124.398L124.418 27.74C124.444 25.26 124.458 23.3467 124.458 22C124.458 20.72 124.444 18.9067 124.418 16.56L124.398 14.4H129.118C129.091 16.2933 129.078 17.84 129.078 19.04C129.078 20.3733 129.084 21.36 129.098 22ZM143.886 19.08L143.426 20.24C142.159 23.6133 140.832 26.8667 139.446 30C138.726 31.6 137.686 32.88 136.326 33.84C134.966 34.8133 133.259 35.28 131.206 35.24C130.952 34.1333 130.739 33.2667 130.566 32.64C130.406 32.0267 130.192 31.4067 129.926 30.78C130.659 30.9533 131.346 31.04 131.986 31.04C133.026 31.04 133.852 30.82 134.466 30.38C133.986 28.9533 133.419 27.42 132.766 25.78C132.112 24.14 131.166 21.9067 129.926 19.08H134.666C134.826 19.7467 135.046 20.52 135.326 21.4C135.606 22.28 135.886 23.1267 136.166 23.94C136.246 24.1933 136.372 24.58 136.546 25.1C136.732 25.6067 136.879 26.0333 136.986 26.38L137.506 24.8C138.506 21.9067 139.099 20 139.286 19.08H143.886ZM148.695 28.28C149.148 27.6 149.521 26.9667 149.815 26.38C150.121 25.7933 150.415 25.1133 150.695 24.34C151.641 24.8867 152.741 25.3133 153.995 25.62C155.248 25.9267 156.415 26.08 157.495 26.08C158.601 26.08 159.381 25.9867 159.835 25.8C160.288 25.6 160.515 25.3867 160.515 25.16C160.515 24.3467 159.275 23.94 156.795 23.94C154.075 23.94 152.101 23.66 150.875 23.1C149.648 22.5267 149.035 21.6067 149.035 20.34C149.035 18.54 149.781 17.2133 151.275 16.36C152.768 15.5067 154.708 15.08 157.095 15.08C158.481 15.08 159.901 15.26 161.355 15.62C162.821 15.9667 164.141 16.4467 165.315 17.06C164.928 17.94 164.521 19.0133 164.095 20.28C164.015 20.5467 163.948 20.7467 163.895 20.88C163.215 20.3333 162.188 19.88 160.815 19.52C159.441 19.1467 158.228 18.96 157.175 18.96C155.908 18.96 155.055 19.0467 154.615 19.22C154.175 19.38 153.955 19.62 153.955 19.94C153.955 20.26 154.255 20.52 154.855 20.72C155.468 20.9067 156.348 21 157.495 21C160.321 21 162.375 21.3267 163.655 21.98C164.935 22.62 165.575 23.6067 165.575 24.94C165.575 26.8067 164.895 28.1533 163.535 28.98C162.175 29.7933 160.115 30.2 157.355 30.2C155.875 30.2 154.368 30.04 152.835 29.72C151.301 29.3867 149.921 28.9067 148.695 28.28Z" fill="white"/>
</svg>
