<svg width="412" height="304" viewBox="0 0 412 304" fill="none" xmlns="http://www.w3.org/2000/svg">
<rect y="71.9709" width="412" height="232.032" rx="5" fill="#AB84FF"/>
<line x1="65.5" y1="73.4709" x2="344.5" y2="73.4709" stroke="white" stroke-linecap="round" stroke-dasharray="10 10"/>
<rect width="412" height="72" rx="5" fill="#5200FF"/>
<path d="M210.738 44.08C212.658 44.0373 214.076 43.9947 214.994 43.952V50H198.066V43.952C200.37 44.0373 202.108 44.08 203.282 44.08V33.04C202.514 34.7253 200.946 35.8133 198.578 36.304C198.514 33.7867 198.279 31.4933 197.874 29.424C199.58 29.1893 200.764 28.9013 201.426 28.56C202.108 28.1973 202.631 27.8027 202.994 27.376C203.378 26.9493 203.634 26.6613 203.762 26.512V26.448H210.738V44.08Z" fill="white"/>
<line x1="52.1819" y1="49.5824" x2="52.1819" y2="21.2858" stroke="white" stroke-dasharray="4 4"/>
<line x1="357.467" y1="49.5824" x2="357.467" y2="21.2858" stroke="white" stroke-dasharray="4 4"/>
<path d="M85.735 141.871C80.9137 141.871 77.3617 140.847 75.079 138.799C72.7963 136.751 71.655 133.829 71.655 130.031C71.655 126.213 72.7963 123.194 75.079 120.975C77.3617 118.757 80.9137 117.647 85.735 117.647C92.4763 117.647 96.9883 119.962 99.271 124.591C97.351 125.253 95.1003 126.245 92.519 127.567C91.9003 126.373 90.919 125.487 89.575 124.911C88.2523 124.335 86.8977 124.047 85.511 124.047C83.463 124.047 81.9377 124.591 80.935 125.679C79.9323 126.746 79.431 128.069 79.431 129.647C79.431 131.354 79.9643 132.751 81.031 133.839C82.119 134.906 83.7723 135.439 85.991 135.439C87.7617 135.439 89.1697 135.151 90.215 134.575C91.2603 133.978 92.0283 133.039 92.519 131.759C94.2683 132.698 96.5083 133.754 99.239 134.927C98.1723 137.509 96.391 139.311 93.895 140.335C91.399 141.359 88.679 141.871 85.735 141.871ZM121.811 137.007H122.771V145.615H116.722V142.127H106.611V145.679H100.562V137.007H101.618C102.344 136.901 102.888 136.634 103.251 136.207C103.635 135.781 103.933 135.077 104.147 134.095C104.296 133.327 104.371 131.493 104.371 128.591V124.079L121.811 124.111V137.007ZM109.811 135.951C109.768 136.186 109.683 136.538 109.555 137.007H115.699V129.487H110.259V130.447C110.237 131.685 110.205 132.666 110.163 133.391C110.12 134.095 110.003 134.949 109.811 135.951ZM145.855 136.239C145.855 136.965 145.94 137.477 146.111 137.775C146.281 138.074 146.623 138.287 147.135 138.415L147.007 141.423C146.324 141.53 145.727 141.605 145.215 141.647C144.724 141.69 144.063 141.711 143.231 141.711C141.396 141.711 140.18 141.306 139.583 140.495C138.985 139.663 138.687 138.607 138.687 137.327V136.527C138.068 138.277 137.161 139.578 135.967 140.431C134.793 141.285 133.289 141.711 131.455 141.711C129.321 141.711 127.711 141.285 126.623 140.431C125.556 139.578 125.023 138.309 125.023 136.623C125.023 135.237 125.481 134.149 126.399 133.359C127.316 132.57 128.735 132.026 130.655 131.727C129.033 130.575 127.412 129.573 125.791 128.719C127.071 127.098 128.532 125.871 130.175 125.039C131.817 124.186 133.812 123.759 136.159 123.759C139.444 123.759 141.876 124.474 143.455 125.903C145.055 127.311 145.855 129.487 145.855 132.431V136.239ZM136.831 129.391C135.743 129.391 134.783 129.573 133.951 129.935C133.119 130.298 132.372 130.842 131.711 131.567C132.991 131.418 134.591 131.343 136.511 131.343C137.3 131.343 137.855 131.247 138.175 131.055C138.495 130.863 138.655 130.618 138.655 130.319C138.655 130.063 138.495 129.85 138.175 129.679C137.855 129.487 137.407 129.391 136.831 129.391ZM133.47 136.495C134.665 136.495 135.743 136.271 136.703 135.823C137.663 135.354 138.324 134.746 138.687 133.999V133.167C138.175 133.423 137.609 133.626 136.991 133.775C136.372 133.903 135.625 134.031 134.751 134.159L133.599 134.351C132.404 134.586 131.807 134.991 131.807 135.567C131.807 136.186 132.361 136.495 133.47 136.495ZM169.093 124.079C168.987 127.173 168.933 129.967 168.933 132.463C168.933 134.917 168.987 137.711 169.093 140.847H162.533L162.885 129.775L157.989 140.847H149.061C149.189 138.031 149.253 135.237 149.253 132.463C149.253 129.647 149.189 126.853 149.061 124.079H155.365L155.045 135.439L159.941 124.079H169.093ZM158.757 123.311C157.755 123.311 156.827 123.087 155.973 122.639C155.141 122.191 154.48 121.551 153.989 120.719C153.499 119.887 153.253 118.917 153.253 117.807H156.421C156.421 118.639 156.635 119.258 157.061 119.663C157.509 120.047 158.075 120.239 158.757 120.239C159.44 120.239 159.995 120.047 160.421 119.663C160.869 119.258 161.093 118.639 161.093 117.807H164.261C164.261 118.917 164.016 119.887 163.525 120.719C163.035 121.551 162.363 122.191 161.509 122.639C160.677 123.087 159.76 123.311 158.757 123.311ZM191.079 130.095C187.879 130.01 185.554 129.957 184.103 129.935V141.551H177.319V129.935C175.89 129.957 173.575 130.01 170.375 130.095V124.079H191.079V130.095ZM207.708 133.551H197.276C197.447 134.49 197.863 135.258 198.524 135.855C199.207 136.431 200.167 136.719 201.404 136.719C202.3 136.719 203.143 136.549 203.932 136.207C204.721 135.845 205.351 135.343 205.82 134.703C207.249 135.407 209.148 136.165 211.516 136.975C210.855 138.469 209.649 139.663 207.9 140.559C206.172 141.434 203.911 141.871 201.116 141.871C197.489 141.871 194.801 141.039 193.052 139.375C191.324 137.69 190.46 135.482 190.46 132.751C190.46 130.085 191.324 127.919 193.052 126.255C194.78 124.591 197.468 123.759 201.116 123.759C203.292 123.759 205.18 124.122 206.78 124.847C208.38 125.573 209.607 126.586 210.46 127.887C211.313 129.167 211.74 130.639 211.74 132.303C211.74 132.858 211.719 133.274 211.676 133.551H207.708ZM201.564 128.591C200.497 128.591 199.623 128.794 198.94 129.199C198.257 129.605 197.777 130.159 197.5 130.863H205.052C204.796 130.181 204.38 129.637 203.804 129.231C203.228 128.805 202.481 128.591 201.564 128.591ZM239.798 130.095C236.598 130.01 234.272 129.957 232.822 129.935V141.551H226.038V129.935C224.608 129.957 222.294 130.01 219.094 130.095V124.079H239.798V130.095ZM256.427 133.551H245.995C246.165 134.49 246.581 135.258 247.243 135.855C247.925 136.431 248.885 136.719 250.123 136.719C251.019 136.719 251.861 136.549 252.651 136.207C253.44 135.845 254.069 135.343 254.539 134.703C255.968 135.407 257.867 136.165 260.235 136.975C259.573 138.469 258.368 139.663 256.619 140.559C254.891 141.434 252.629 141.871 249.835 141.871C246.208 141.871 243.52 141.039 241.771 139.375C240.043 137.69 239.179 135.482 239.179 132.751C239.179 130.085 240.043 127.919 241.771 126.255C243.499 124.591 246.187 123.759 249.835 123.759C252.011 123.759 253.899 124.122 255.499 124.847C257.099 125.573 258.325 126.586 259.179 127.887C260.032 129.167 260.459 130.639 260.459 132.303C260.459 132.858 260.437 133.274 260.395 133.551H256.427ZM250.283 128.591C249.216 128.591 248.341 128.794 247.659 129.199C246.976 129.605 246.496 130.159 246.219 130.863H253.771C253.515 130.181 253.099 129.637 252.523 129.231C251.947 128.805 251.2 128.591 250.283 128.591ZM269.182 132.815C269.225 133.903 269.566 134.778 270.206 135.439C270.868 136.101 271.838 136.431 273.118 136.431C273.822 136.431 274.452 136.303 275.006 136.047C275.561 135.77 276.073 135.365 276.542 134.831C278.356 135.535 280.478 136.143 282.91 136.655C282.206 138.298 281.012 139.578 279.326 140.495C277.662 141.413 275.497 141.871 272.83 141.871C269.268 141.871 266.633 141.039 264.926 139.375C263.22 137.711 262.366 135.525 262.366 132.815C262.366 130.106 263.22 127.919 264.926 126.255C266.633 124.591 269.268 123.759 272.83 123.759C275.497 123.759 277.662 124.218 279.326 125.135C281.012 126.053 282.206 127.333 282.91 128.975C281.012 129.381 278.889 129.989 276.542 130.799C276.073 130.266 275.561 129.871 275.006 129.615C274.452 129.338 273.822 129.199 273.118 129.199C271.838 129.199 270.868 129.53 270.206 130.191C269.566 130.853 269.225 131.727 269.182 132.815ZM304.735 130.095C301.535 130.01 299.21 129.957 297.759 129.935V141.551H290.975V129.935C289.546 129.957 287.231 130.01 284.031 130.095V124.079H304.735V130.095ZM317.134 127.983C320.313 127.983 322.531 128.613 323.79 129.871C325.049 131.109 325.678 132.837 325.678 135.055C325.678 137.125 325.049 138.725 323.79 139.855C322.553 140.965 320.334 141.519 317.134 141.519H312.878V141.551H306.03C306.137 139.119 306.19 136.207 306.19 132.815C306.19 129.423 306.137 126.511 306.03 124.079H312.878V127.983H317.134ZM333.934 124.079C333.827 126.469 333.774 129.37 333.774 132.783C333.774 136.175 333.827 139.077 333.934 141.487H326.926C326.99 137.199 327.022 133.594 327.022 130.671C327.022 127.749 326.99 125.551 326.926 124.079H333.934ZM315.214 136.431C316.729 136.431 317.785 136.314 318.382 136.079C318.979 135.845 319.278 135.386 319.278 134.703C319.278 134.021 318.969 133.562 318.35 133.327C317.731 133.071 316.686 132.943 315.214 132.943L312.878 132.975V136.431H315.214ZM105.034 162.079C104.927 165.322 104.874 168.234 104.874 170.815C104.874 173.397 104.927 176.309 105.034 179.551H98.0898V173.727H91.8177V179.551H84.8738C84.9804 177.119 85.0338 174.207 85.0338 170.815C85.0338 167.423 84.9804 164.511 84.8738 162.079H91.8177V167.903H98.0898V162.079H105.034ZM128.105 174.239C128.105 174.965 128.19 175.477 128.361 175.775C128.531 176.074 128.873 176.287 129.385 176.415L129.257 179.423C128.574 179.53 127.977 179.605 127.465 179.647C126.974 179.69 126.313 179.711 125.481 179.711C123.646 179.711 122.43 179.306 121.833 178.495C121.235 177.663 120.937 176.607 120.937 175.327V174.527C120.318 176.277 119.411 177.578 118.217 178.431C117.043 179.285 115.539 179.711 113.705 179.711C111.571 179.711 109.961 179.285 108.873 178.431C107.806 177.578 107.273 176.309 107.273 174.623C107.273 173.237 107.731 172.149 108.649 171.359C109.566 170.57 110.985 170.026 112.905 169.727C111.283 168.575 109.662 167.573 108.041 166.719C109.321 165.098 110.782 163.871 112.425 163.039C114.067 162.186 116.062 161.759 118.409 161.759C121.694 161.759 124.126 162.474 125.705 163.903C127.305 165.311 128.105 167.487 128.105 170.431V174.239ZM119.081 167.391C117.993 167.391 117.033 167.573 116.201 167.935C115.369 168.298 114.622 168.842 113.961 169.567C115.241 169.418 116.841 169.343 118.761 169.343C119.55 169.343 120.105 169.247 120.425 169.055C120.745 168.863 120.905 168.618 120.905 168.319C120.905 168.063 120.745 167.85 120.425 167.679C120.105 167.487 119.657 167.391 119.081 167.391ZM115.72 174.495C116.915 174.495 117.993 174.271 118.953 173.823C119.913 173.354 120.574 172.746 120.937 171.999V171.167C120.425 171.423 119.859 171.626 119.241 171.775C118.622 171.903 117.875 172.031 117.001 172.159L115.849 172.351C114.654 172.586 114.057 172.991 114.057 173.567C114.057 174.186 114.611 174.495 115.72 174.495ZM157.686 175.007H158.646V183.615H152.597V180.127H142.486V183.679H136.438V175.007H137.493C138.219 174.901 138.763 174.634 139.126 174.207C139.51 173.781 139.808 173.077 140.022 172.095C140.171 171.327 140.246 169.493 140.246 166.591V162.079L157.686 162.111V175.007ZM145.686 173.951C145.643 174.186 145.558 174.538 145.43 175.007H151.574V167.487H146.134V168.447C146.112 169.685 146.08 170.666 146.038 171.391C145.995 172.095 145.878 172.949 145.686 173.951ZM178.146 171.551H167.714C167.884 172.49 168.3 173.258 168.962 173.855C169.644 174.431 170.604 174.719 171.842 174.719C172.738 174.719 173.58 174.549 174.37 174.207C175.159 173.845 175.788 173.343 176.258 172.703C177.687 173.407 179.586 174.165 181.954 174.975C181.292 176.469 180.087 177.663 178.338 178.559C176.61 179.434 174.348 179.871 171.554 179.871C167.927 179.871 165.239 179.039 163.49 177.375C161.762 175.69 160.898 173.482 160.898 170.751C160.898 168.085 161.762 165.919 163.49 164.255C165.218 162.591 167.906 161.759 171.554 161.759C173.73 161.759 175.618 162.122 177.218 162.847C178.818 163.573 180.044 164.586 180.898 165.887C181.751 167.167 182.178 168.639 182.178 170.303C182.178 170.858 182.156 171.274 182.114 171.551H178.146ZM172.002 166.591C170.935 166.591 170.06 166.794 169.378 167.199C168.695 167.605 168.215 168.159 167.938 168.863H175.49C175.234 168.181 174.818 167.637 174.242 167.231C173.666 166.805 172.919 166.591 172.002 166.591ZM208.085 170.751C208.085 173.077 207.349 175.029 205.877 176.607C204.426 178.186 202.229 179.199 199.285 179.647C199.285 183.018 199.306 185.461 199.349 186.975H192.693L192.757 179.679C189.792 179.253 187.605 178.25 186.197 176.671C184.789 175.071 184.085 173.098 184.085 170.751C184.085 168.469 184.778 166.538 186.165 164.959C187.573 163.381 189.76 162.389 192.725 161.983L192.693 158.847H199.349L199.317 162.015C202.218 162.485 204.405 163.509 205.877 165.087C207.349 166.666 208.085 168.554 208.085 170.751ZM190.485 170.783C190.485 172.49 191.253 173.674 192.789 174.335V172.543C192.789 170.218 192.778 168.479 192.757 167.327C191.242 167.989 190.485 169.141 190.485 170.783ZM199.285 174.335C200.096 173.994 200.693 173.514 201.077 172.895C201.482 172.277 201.685 171.573 201.685 170.783C201.685 170.037 201.493 169.365 201.109 168.767C200.725 168.149 200.138 167.669 199.349 167.327C199.349 169.674 199.338 171.413 199.317 172.543C199.317 173.333 199.306 173.93 199.285 174.335ZM230.343 162.079C230.237 165.173 230.183 167.967 230.183 170.463C230.183 172.917 230.237 175.711 230.343 178.847H223.783L224.135 167.775L219.239 178.847H210.311C210.439 176.031 210.503 173.237 210.503 170.463C210.503 167.647 210.439 164.853 210.311 162.079H216.615L216.295 173.439L221.191 162.079H230.343ZM253.353 173.727V185.791H246.729V179.551H232.905C233.033 176.629 233.097 173.717 233.097 170.815C233.097 167.893 233.033 164.981 232.905 162.079H239.529V173.727H245.737V162.079H252.361C252.233 164.959 252.169 167.839 252.169 170.719C252.169 172.063 252.18 173.066 252.201 173.727H253.353ZM275.937 162.079C275.83 165.173 275.777 167.967 275.777 170.463C275.777 172.917 275.83 175.711 275.937 178.847H269.377L269.729 167.775L264.833 178.847H255.905C256.033 176.031 256.097 173.237 256.097 170.463C256.097 167.647 256.033 164.853 255.905 162.079H262.209L261.889 173.439L266.785 162.079H275.937ZM297.923 168.095C294.723 168.01 292.397 167.957 290.947 167.935V179.551H284.163V167.935C282.733 167.957 280.419 168.01 277.219 168.095V162.079H297.923V168.095ZM310.322 165.983C313.5 165.983 315.719 166.613 316.978 167.871C318.236 169.109 318.866 170.837 318.866 173.055C318.866 175.125 318.236 176.725 316.978 177.855C315.74 178.965 313.522 179.519 310.322 179.519H306.066V179.551H299.218C299.324 177.119 299.378 174.207 299.378 170.815C299.378 167.423 299.324 164.511 299.218 162.079H306.066V165.983H310.322ZM327.122 162.079C327.015 164.469 326.962 167.37 326.962 170.783C326.962 174.175 327.015 177.077 327.122 179.487H320.114C320.178 175.199 320.21 171.594 320.21 168.671C320.21 165.749 320.178 163.551 320.114 162.079H327.122ZM308.402 174.431C309.916 174.431 310.972 174.314 311.57 174.079C312.167 173.845 312.466 173.386 312.466 172.703C312.466 172.021 312.156 171.562 311.538 171.327C310.919 171.071 309.874 170.943 308.402 170.943L306.066 170.975V174.431H308.402ZM117.533 208.879C121.181 208.879 123.005 210.042 123.005 212.367C123.005 214.031 122.365 215.311 121.085 216.207C119.826 217.103 117.543 217.551 114.237 217.551H103.421C103.527 215.119 103.581 212.207 103.581 208.815C103.581 205.423 103.527 202.511 103.421 200.079H110.045V200.111H114.205C116.21 200.111 117.778 200.282 118.909 200.623C120.061 200.943 120.871 201.413 121.341 202.031C121.81 202.65 122.045 203.439 122.045 204.399C122.045 206.554 120.541 208.047 117.533 208.879ZM110.045 204.495V206.735H112.477C113.458 206.735 114.151 206.65 114.557 206.479C114.962 206.287 115.165 205.957 115.165 205.487C115.165 205.125 114.951 204.869 114.525 204.719C114.119 204.57 113.437 204.495 112.477 204.495H110.045ZM112.477 213.135C113.693 213.135 114.525 213.05 114.973 212.879C115.421 212.687 115.645 212.357 115.645 211.887C115.645 211.482 115.41 211.183 114.941 210.991C114.471 210.799 113.65 210.703 112.477 210.703H110.045V213.135H112.477ZM145.265 200.079C145.158 203.173 145.105 205.967 145.105 208.463C145.105 210.917 145.158 213.711 145.265 216.847H138.705L139.057 205.775L134.161 216.847H125.233C125.361 214.031 125.425 211.237 125.425 208.463C125.425 205.647 125.361 202.853 125.233 200.079H131.537L131.217 211.439L136.113 200.079H145.265ZM167.251 206.095C164.051 206.01 161.726 205.957 160.275 205.935V217.551H153.491V205.935C152.062 205.957 149.747 206.01 146.547 206.095V200.079H167.251V206.095ZM189.058 212.239C189.058 212.965 189.143 213.477 189.314 213.775C189.484 214.074 189.826 214.287 190.338 214.415L190.21 217.423C189.527 217.53 188.93 217.605 188.418 217.647C187.927 217.69 187.266 217.711 186.434 217.711C184.599 217.711 183.383 217.306 182.786 216.495C182.188 215.663 181.89 214.607 181.89 213.327V212.527C181.271 214.277 180.364 215.578 179.17 216.431C177.996 217.285 176.492 217.711 174.658 217.711C172.524 217.711 170.914 217.285 169.826 216.431C168.759 215.578 168.226 214.309 168.226 212.623C168.226 211.237 168.684 210.149 169.602 209.359C170.519 208.57 171.938 208.026 173.858 207.727C172.236 206.575 170.615 205.573 168.994 204.719C170.274 203.098 171.735 201.871 173.378 201.039C175.02 200.186 177.015 199.759 179.362 199.759C182.647 199.759 185.079 200.474 186.658 201.903C188.258 203.311 189.058 205.487 189.058 208.431V212.239ZM180.034 205.391C178.946 205.391 177.986 205.573 177.154 205.935C176.322 206.298 175.575 206.842 174.914 207.567C176.194 207.418 177.794 207.343 179.714 207.343C180.503 207.343 181.058 207.247 181.378 207.055C181.698 206.863 181.858 206.618 181.858 206.319C181.858 206.063 181.698 205.85 181.378 205.679C181.058 205.487 180.61 205.391 180.034 205.391ZM176.674 212.495C177.868 212.495 178.946 212.271 179.906 211.823C180.866 211.354 181.527 210.746 181.89 209.999V209.167C181.378 209.423 180.812 209.626 180.194 209.775C179.575 209.903 178.828 210.031 177.954 210.159L176.802 210.351C175.607 210.586 175.01 210.991 175.01 211.567C175.01 212.186 175.564 212.495 176.674 212.495ZM216.68 200.079L217.896 217.551H211.688L211.304 205.039L208.872 217.551H201.288L198.824 205.199L198.472 217.551H192.264L193.48 200.079H202.952L205.032 211.503L206.888 200.079H216.68ZM240.484 200.079C240.377 203.173 240.324 205.967 240.324 208.463C240.324 210.917 240.377 213.711 240.484 216.847H233.924L234.276 205.775L229.38 216.847H220.452C220.58 214.031 220.644 211.237 220.644 208.463C220.644 205.647 220.58 202.853 220.452 200.079H226.756L226.436 211.439L231.332 200.079H240.484ZM263.206 200.079C263.099 203.322 263.046 206.234 263.046 208.815C263.046 211.397 263.099 214.309 263.206 217.551H256.262V211.727H249.99V217.551H243.046C243.152 215.119 243.206 212.207 243.206 208.815C243.206 205.423 243.152 202.511 243.046 200.079H249.99V205.903H256.262V200.079H263.206ZM276.068 217.871C272.42 217.871 269.732 217.039 268.004 215.375C266.298 213.69 265.444 211.482 265.444 208.751C265.444 206.085 266.298 203.919 268.004 202.255C269.732 200.591 272.42 199.759 276.068 199.759C278.522 199.759 280.57 200.165 282.212 200.975C283.876 201.765 285.103 202.842 285.892 204.207C286.682 205.551 287.076 207.066 287.076 208.751C287.076 211.503 286.159 213.711 284.324 215.375C282.511 217.039 279.759 217.871 276.068 217.871ZM276.196 212.431C277.583 212.431 278.618 212.101 279.3 211.439C279.983 210.778 280.324 209.893 280.324 208.783C280.324 207.738 279.983 206.885 279.3 206.223C278.618 205.541 277.583 205.199 276.196 205.199C274.81 205.199 273.796 205.53 273.156 206.191C272.516 206.853 272.196 207.717 272.196 208.783C272.196 209.893 272.516 210.778 273.156 211.439C273.796 212.101 274.81 212.431 276.196 212.431ZM303.439 208.879C307.087 208.879 308.911 210.042 308.911 212.367C308.911 214.031 308.271 215.311 306.991 216.207C305.732 217.103 303.45 217.551 300.143 217.551H289.327C289.434 215.119 289.487 212.207 289.487 208.815C289.487 205.423 289.434 202.511 289.327 200.079H295.951V200.111H300.111C302.116 200.111 303.684 200.282 304.815 200.623C305.967 200.943 306.778 201.413 307.247 202.031C307.716 202.65 307.951 203.439 307.951 204.399C307.951 206.554 306.447 208.047 303.439 208.879ZM295.951 204.495V206.735H298.383C299.364 206.735 300.058 206.65 300.463 206.479C300.868 206.287 301.071 205.957 301.071 205.487C301.071 205.125 300.858 204.869 300.431 204.719C300.026 204.57 299.343 204.495 298.383 204.495H295.951ZM298.383 213.135C299.599 213.135 300.431 213.05 300.879 212.879C301.327 212.687 301.551 212.357 301.551 211.887C301.551 211.482 301.316 211.183 300.847 210.991C300.378 210.799 299.556 210.703 298.383 210.703H295.951V213.135H298.383Z" fill="white"/>
</svg>
