<svg width="415" height="304" viewBox="0 0 415 304" fill="none" xmlns="http://www.w3.org/2000/svg">
<g clip-path="url(#clip0_258_645)">
<rect y="71" width="415" height="233" rx="5" fill="#AB84FF"/>
<line x1="67.5" y1="72.5" x2="346.5" y2="72.5" stroke="white" stroke-linecap="round" stroke-dasharray="10 10"/>
</g>
<path d="M196.402 114.442C196.252 118.047 196.178 121.919 196.178 126.058C196.178 130.197 196.252 134.069 196.402 137.674H188.882V120.906H178.066V137.674H170.546C170.716 133.535 170.802 129.663 170.802 126.058C170.802 122.453 170.716 118.581 170.546 114.442H196.402ZM212.936 119.882C214.323 119.882 215.571 120.277 216.68 121.066C217.789 121.855 218.653 122.933 219.272 124.298C219.891 125.642 220.2 127.125 220.2 128.746C220.2 130.346 219.891 131.861 219.272 133.29C218.653 134.698 217.779 135.839 216.648 136.714C215.539 137.567 214.269 137.994 212.84 137.994C211.176 137.994 209.747 137.653 208.552 136.97C207.379 136.266 206.504 135.189 205.928 133.738C205.928 134.954 205.971 136.906 206.056 139.594C206.141 142.197 206.184 144.031 206.184 145.098H198.952C199.08 141.13 199.144 136.981 199.144 132.65C199.144 128.319 199.08 124.17 198.952 120.202H205.096L206.024 124.202C206.621 122.709 207.517 121.621 208.712 120.938C209.907 120.234 211.315 119.882 212.936 119.882ZM209.512 132.234C210.472 132.234 211.272 131.935 211.912 131.338C212.573 130.719 212.904 129.919 212.904 128.938C212.904 127.85 212.605 126.965 212.008 126.282C211.411 125.599 210.6 125.258 209.576 125.258C208.403 125.258 207.517 125.546 206.92 126.122C206.323 126.677 206.024 127.615 206.024 128.938C206.024 129.685 206.216 130.314 206.6 130.826C206.984 131.317 207.443 131.679 207.976 131.914C208.509 132.127 209.021 132.234 209.512 132.234ZM232.756 137.994C229.108 137.994 226.42 137.162 224.692 135.498C222.985 133.813 222.132 131.605 222.132 128.874C222.132 126.207 222.985 124.042 224.692 122.378C226.42 120.714 229.108 119.882 232.756 119.882C235.209 119.882 237.257 120.287 238.9 121.098C240.564 121.887 241.791 122.965 242.58 124.33C243.369 125.674 243.764 127.189 243.764 128.874C243.764 131.626 242.847 133.834 241.012 135.498C239.199 137.162 236.447 137.994 232.756 137.994ZM232.884 132.554C234.271 132.554 235.305 132.223 235.988 131.562C236.671 130.901 237.012 130.015 237.012 128.906C237.012 127.861 236.671 127.007 235.988 126.346C235.305 125.663 234.271 125.322 232.884 125.322C231.497 125.322 230.484 125.653 229.844 126.314C229.204 126.975 228.884 127.839 228.884 128.906C228.884 130.015 229.204 130.901 229.844 131.562C230.484 132.223 231.497 132.554 232.884 132.554ZM46.0695 167.322C47.0295 168.09 47.7655 168.954 48.2775 169.914C48.7895 170.874 49.2695 172.026 49.7175 173.37C50.1655 174.543 50.4855 175.311 50.6775 175.674H42.9655C42.9015 175.525 42.7735 175.055 42.5815 174.266C42.4108 173.477 42.2402 172.847 42.0695 172.378C41.8988 171.887 41.6428 171.461 41.3015 171.098C40.7682 170.522 40.1708 170.149 39.5095 169.978C38.8482 169.807 37.8668 169.722 36.5655 169.722V175.674H29.7175C29.8242 173.242 29.8775 170.33 29.8775 166.938C29.8775 163.546 29.8242 160.634 29.7175 158.202H36.5655V164.474H36.6935C39.2322 161.935 41.0775 159.845 42.2295 158.202H50.6775L43.1895 165.658C44.2988 166.127 45.2588 166.682 46.0695 167.322ZM62.2715 175.994C58.6235 175.994 55.9355 175.162 54.2075 173.498C52.5008 171.813 51.6475 169.605 51.6475 166.874C51.6475 164.207 52.5008 162.042 54.2075 160.378C55.9355 158.714 58.6235 157.882 62.2715 157.882C64.7248 157.882 66.7728 158.287 68.4155 159.098C70.0795 159.887 71.3062 160.965 72.0955 162.33C72.8848 163.674 73.2795 165.189 73.2795 166.874C73.2795 169.626 72.3622 171.834 70.5275 173.498C68.7142 175.162 65.9622 175.994 62.2715 175.994ZM62.3995 170.554C63.7862 170.554 64.8208 170.223 65.5035 169.562C66.1862 168.901 66.5275 168.015 66.5275 166.906C66.5275 165.861 66.1862 165.007 65.5035 164.346C64.8208 163.663 63.7862 163.322 62.3995 163.322C61.0128 163.322 59.9995 163.653 59.3595 164.314C58.7195 164.975 58.3995 165.839 58.3995 166.906C58.3995 168.015 58.7195 168.901 59.3595 169.562C59.9995 170.223 61.0128 170.554 62.3995 170.554ZM95.69 158.202C95.5833 161.445 95.53 164.357 95.53 166.938C95.53 169.519 95.5833 172.431 95.69 175.674H88.746V169.85H82.474V175.674H75.53C75.6367 173.242 75.69 170.33 75.69 166.938C75.69 163.546 75.6367 160.634 75.53 158.202H82.474V164.026H88.746V158.202H95.69ZM104.745 166.938C104.787 168.026 105.129 168.901 105.769 169.562C106.43 170.223 107.401 170.554 108.681 170.554C109.385 170.554 110.014 170.426 110.569 170.17C111.123 169.893 111.635 169.487 112.105 168.954C113.918 169.658 116.041 170.266 118.473 170.778C117.769 172.421 116.574 173.701 114.889 174.618C113.225 175.535 111.059 175.994 108.393 175.994C104.83 175.994 102.195 175.162 100.489 173.498C98.7821 171.834 97.9288 169.647 97.9288 166.938C97.9288 164.229 98.7821 162.042 100.489 160.378C102.195 158.714 104.83 157.882 108.393 157.882C111.059 157.882 113.225 158.341 114.889 159.258C116.574 160.175 117.769 161.455 118.473 163.098C116.574 163.503 114.451 164.111 112.105 164.922C111.635 164.389 111.123 163.994 110.569 163.738C110.014 163.461 109.385 163.322 108.681 163.322C107.401 163.322 106.43 163.653 105.769 164.314C105.129 164.975 104.787 165.85 104.745 166.938ZM140.024 158.202L139.288 160.058C137.261 165.455 135.138 170.661 132.92 175.674C131.768 178.234 130.104 180.282 127.928 181.818C125.752 183.375 123.021 184.122 119.736 184.058C119.33 182.287 118.989 180.901 118.712 179.898C118.456 178.917 118.114 177.925 117.688 176.922C118.861 177.199 119.96 177.338 120.984 177.338C122.648 177.338 123.97 176.986 124.952 176.282C124.184 173.999 123.277 171.546 122.232 168.922C121.186 166.298 119.672 162.725 117.688 158.202H125.272C125.528 159.269 125.88 160.506 126.328 161.914C126.776 163.322 127.224 164.677 127.672 165.978C127.8 166.383 128.002 167.002 128.28 167.834C128.578 168.645 128.813 169.327 128.984 169.882L129.816 167.354C131.416 162.725 132.365 159.674 132.664 158.202H140.024ZM159.341 175.834H152.333V164.25H147.789L147.757 165.242C147.736 166.266 147.693 167.173 147.629 167.962C147.586 168.73 147.48 169.562 147.309 170.458C146.584 174.362 143.629 176.314 138.445 176.314V171.226C139.448 171.098 140.13 170.789 140.493 170.298C140.856 169.786 141.037 168.997 141.037 167.93V158.202L159.341 158.234V175.834ZM173.009 162.106C176.188 162.106 178.406 162.735 179.665 163.994C180.924 165.231 181.553 166.959 181.553 169.178C181.553 171.247 180.924 172.847 179.665 173.978C178.428 175.087 176.209 175.642 173.009 175.642H168.753V175.674H161.905C162.012 173.242 162.065 170.33 162.065 166.938C162.065 163.546 162.012 160.634 161.905 158.202H168.753V162.106H173.009ZM171.089 170.554C172.604 170.554 173.66 170.437 174.257 170.202C174.854 169.967 175.153 169.509 175.153 168.826C175.153 168.143 174.844 167.685 174.225 167.45C173.606 167.194 172.561 167.066 171.089 167.066L168.753 167.098V170.554H171.089ZM203.204 164.218C200.004 164.133 197.679 164.079 196.228 164.058V175.674H189.444V164.058C188.015 164.079 185.7 164.133 182.5 164.218V158.202H203.204V164.218ZM224.531 158.202C224.424 161.295 224.371 164.09 224.371 166.586C224.371 169.039 224.424 171.834 224.531 174.97H217.971L218.323 163.898L213.427 174.97H204.499C204.627 172.154 204.691 169.359 204.691 166.586C204.691 163.77 204.627 160.975 204.499 158.202H210.803L210.483 169.562L215.379 158.202H224.531ZM241.077 157.882C242.463 157.882 243.711 158.277 244.821 159.066C245.93 159.855 246.794 160.933 247.413 162.298C248.031 163.642 248.341 165.125 248.341 166.746C248.341 168.346 248.031 169.861 247.413 171.29C246.794 172.698 245.919 173.839 244.789 174.714C243.679 175.567 242.41 175.994 240.981 175.994C239.317 175.994 237.887 175.653 236.693 174.97C235.519 174.266 234.645 173.189 234.069 171.738C234.069 172.954 234.111 174.906 234.197 177.594C234.282 180.197 234.325 182.031 234.325 183.098H227.093C227.221 179.13 227.285 174.981 227.285 170.65C227.285 166.319 227.221 162.17 227.093 158.202H233.237L234.165 162.202C234.762 160.709 235.658 159.621 236.853 158.938C238.047 158.234 239.455 157.882 241.077 157.882ZM237.653 170.234C238.613 170.234 239.413 169.935 240.053 169.338C240.714 168.719 241.045 167.919 241.045 166.938C241.045 165.85 240.746 164.965 240.149 164.282C239.551 163.599 238.741 163.258 237.717 163.258C236.543 163.258 235.658 163.546 235.061 164.122C234.463 164.677 234.165 165.615 234.165 166.938C234.165 167.685 234.357 168.314 234.741 168.826C235.125 169.317 235.583 169.679 236.117 169.914C236.65 170.127 237.162 170.234 237.653 170.234ZM269.742 158.202L269.006 160.058C266.98 165.455 264.857 170.661 262.638 175.674C261.486 178.234 259.822 180.282 257.646 181.818C255.47 183.375 252.74 184.122 249.454 184.058C249.049 182.287 248.708 180.901 248.43 179.898C248.174 178.917 247.833 177.925 247.406 176.922C248.58 177.199 249.678 177.338 250.702 177.338C252.366 177.338 253.689 176.986 254.67 176.282C253.902 173.999 252.996 171.546 251.95 168.922C250.905 166.298 249.39 162.725 247.406 158.202H254.99C255.246 159.269 255.598 160.506 256.046 161.914C256.494 163.322 256.942 164.677 257.39 165.978C257.518 166.383 257.721 167.002 257.998 167.834C258.297 168.645 258.532 169.327 258.702 169.882L259.534 167.354C261.134 162.725 262.084 159.674 262.382 158.202H269.742ZM291.062 158.202C290.955 161.295 290.902 164.09 290.902 166.586C290.902 169.039 290.955 171.834 291.062 174.97H284.502L284.854 163.898L279.958 174.97H271.03C271.158 172.154 271.222 169.359 271.222 166.586C271.222 163.77 271.158 160.975 271.03 158.202H277.334L277.014 169.562L281.91 158.202H291.062ZM280.726 157.434C279.723 157.434 278.795 157.21 277.942 156.762C277.11 156.314 276.449 155.674 275.958 154.842C275.467 154.01 275.222 153.039 275.222 151.93H278.39C278.39 152.762 278.603 153.381 279.03 153.786C279.478 154.17 280.043 154.362 280.726 154.362C281.409 154.362 281.963 154.17 282.39 153.786C282.838 153.381 283.062 152.762 283.062 151.93H286.23C286.23 153.039 285.985 154.01 285.494 154.842C285.003 155.674 284.331 156.314 283.478 156.762C282.646 157.21 281.729 157.434 280.726 157.434ZM313.048 164.218C309.848 164.133 307.522 164.079 306.072 164.058V175.674H299.288V164.058C297.858 164.079 295.544 164.133 292.344 164.218V158.202H313.048V164.218ZM329.677 167.674H319.245C319.415 168.613 319.831 169.381 320.493 169.978C321.175 170.554 322.135 170.842 323.373 170.842C324.269 170.842 325.111 170.671 325.901 170.33C326.69 169.967 327.319 169.466 327.789 168.826C329.218 169.53 331.117 170.287 333.485 171.098C332.823 172.591 331.618 173.786 329.869 174.682C328.141 175.557 325.879 175.994 323.085 175.994C319.458 175.994 316.77 175.162 315.021 173.498C313.293 171.813 312.429 169.605 312.429 166.874C312.429 164.207 313.293 162.042 315.021 160.378C316.749 158.714 319.437 157.882 323.085 157.882C325.261 157.882 327.149 158.245 328.749 158.97C330.349 159.695 331.575 160.709 332.429 162.01C333.282 163.29 333.709 164.762 333.709 166.426C333.709 166.981 333.687 167.397 333.645 167.674H329.677ZM323.533 162.714C322.466 162.714 321.591 162.917 320.909 163.322C320.226 163.727 319.746 164.282 319.469 164.986H327.021C326.765 164.303 326.349 163.759 325.773 163.354C325.197 162.927 324.45 162.714 323.533 162.714ZM342.432 166.938C342.475 168.026 342.816 168.901 343.456 169.562C344.118 170.223 345.088 170.554 346.368 170.554C347.072 170.554 347.702 170.426 348.256 170.17C348.811 169.893 349.323 169.487 349.792 168.954C351.606 169.658 353.728 170.266 356.16 170.778C355.456 172.421 354.262 173.701 352.576 174.618C350.912 175.535 348.747 175.994 346.08 175.994C342.518 175.994 339.883 175.162 338.176 173.498C336.47 171.834 335.616 169.647 335.616 166.938C335.616 164.229 336.47 162.042 338.176 160.378C339.883 158.714 342.518 157.882 346.08 157.882C348.747 157.882 350.912 158.341 352.576 159.258C354.262 160.175 355.456 161.455 356.16 163.098C354.262 163.503 352.139 164.111 349.792 164.922C349.323 164.389 348.811 163.994 348.256 163.738C347.702 163.461 347.072 163.322 346.368 163.322C345.088 163.322 344.118 163.653 343.456 164.314C342.816 164.975 342.475 165.85 342.432 166.938ZM369.665 162.106C372.844 162.106 375.063 162.735 376.321 163.994C377.58 165.231 378.209 166.959 378.209 169.178C378.209 171.247 377.58 172.847 376.321 173.978C375.084 175.087 372.865 175.642 369.665 175.642H365.409V175.674H358.561C358.668 173.242 358.721 170.33 358.721 166.938C358.721 163.546 358.668 160.634 358.561 158.202H365.409V162.106H369.665ZM367.745 170.554C369.26 170.554 370.316 170.437 370.913 170.202C371.511 169.967 371.809 169.509 371.809 168.826C371.809 168.143 371.5 167.685 370.881 167.45C370.263 167.194 369.217 167.066 367.745 167.066L365.409 167.098V170.554H367.745ZM128.948 204.938C128.991 206.026 129.332 206.901 129.972 207.562C130.633 208.223 131.604 208.554 132.884 208.554C133.588 208.554 134.217 208.426 134.772 208.17C135.327 207.893 135.839 207.487 136.308 206.954C138.121 207.658 140.244 208.266 142.676 208.778C141.972 210.421 140.777 211.701 139.092 212.618C137.428 213.535 135.263 213.994 132.596 213.994C129.033 213.994 126.399 213.162 124.692 211.498C122.985 209.834 122.132 207.647 122.132 204.938C122.132 202.229 122.985 200.042 124.692 198.378C126.399 196.714 129.033 195.882 132.596 195.882C135.263 195.882 137.428 196.341 139.092 197.258C140.777 198.175 141.972 199.455 142.676 201.098C140.777 201.503 138.655 202.111 136.308 202.922C135.839 202.389 135.327 201.994 134.772 201.738C134.217 201.461 133.588 201.322 132.884 201.322C131.604 201.322 130.633 201.653 129.972 202.314C129.332 202.975 128.991 203.85 128.948 204.938ZM165.595 205.002C169.243 205.002 171.067 206.165 171.067 208.49C171.067 210.154 170.427 211.434 169.147 212.33C167.888 213.226 165.606 213.674 162.299 213.674H151.483C151.59 211.242 151.643 208.33 151.643 204.938C151.643 201.546 151.59 198.634 151.483 196.202H158.107V196.234H162.267C164.272 196.234 165.84 196.405 166.971 196.746C168.123 197.066 168.934 197.535 169.403 198.154C169.872 198.773 170.107 199.562 170.107 200.522C170.107 202.677 168.603 204.17 165.595 205.002ZM158.107 200.618V202.858H160.539C161.52 202.858 162.214 202.773 162.619 202.602C163.024 202.41 163.227 202.079 163.227 201.61C163.227 201.247 163.014 200.991 162.587 200.842C162.182 200.693 161.499 200.618 160.539 200.618H158.107ZM160.539 209.258C161.755 209.258 162.587 209.173 163.035 209.002C163.483 208.81 163.707 208.479 163.707 208.01C163.707 207.605 163.472 207.306 163.003 207.114C162.534 206.922 161.712 206.826 160.539 206.826H158.107V209.258H160.539ZM187.28 195.882C188.666 195.882 189.914 196.277 191.024 197.066C192.133 197.855 192.997 198.933 193.616 200.298C194.234 201.642 194.544 203.125 194.544 204.746C194.544 206.346 194.234 207.861 193.616 209.29C192.997 210.698 192.122 211.839 190.992 212.714C189.882 213.567 188.613 213.994 187.184 213.994C185.52 213.994 184.09 213.653 182.896 212.97C181.722 212.266 180.848 211.189 180.272 209.738C180.272 210.954 180.314 212.906 180.4 215.594C180.485 218.197 180.528 220.031 180.528 221.098H173.296C173.424 217.13 173.488 212.981 173.488 208.65C173.488 204.319 173.424 200.17 173.296 196.202H179.44L180.368 200.202C180.965 198.709 181.861 197.621 183.056 196.938C184.25 196.234 185.658 195.882 187.28 195.882ZM183.856 208.234C184.816 208.234 185.616 207.935 186.256 207.338C186.917 206.719 187.248 205.919 187.248 204.938C187.248 203.85 186.949 202.965 186.352 202.282C185.754 201.599 184.944 201.258 183.92 201.258C182.746 201.258 181.861 201.546 181.264 202.122C180.666 202.677 180.368 203.615 180.368 204.938C180.368 205.685 180.56 206.314 180.944 206.826C181.328 207.317 181.786 207.679 182.32 207.914C182.853 208.127 183.365 208.234 183.856 208.234ZM217.308 208.362C217.308 209.087 217.393 209.599 217.564 209.898C217.734 210.197 218.076 210.41 218.588 210.538L218.46 213.546C217.777 213.653 217.18 213.727 216.668 213.77C216.177 213.813 215.516 213.834 214.684 213.834C212.849 213.834 211.633 213.429 211.036 212.618C210.438 211.786 210.14 210.73 210.14 209.45V208.65C209.521 210.399 208.614 211.701 207.42 212.554C206.246 213.407 204.742 213.834 202.908 213.834C200.774 213.834 199.164 213.407 198.076 212.554C197.009 211.701 196.476 210.431 196.476 208.746C196.476 207.359 196.934 206.271 197.852 205.482C198.769 204.693 200.188 204.149 202.108 203.85C200.486 202.698 198.865 201.695 197.244 200.842C198.524 199.221 199.985 197.994 201.628 197.162C203.27 196.309 205.265 195.882 207.612 195.882C210.897 195.882 213.329 196.597 214.908 198.026C216.508 199.434 217.308 201.61 217.308 204.554V208.362ZM208.284 201.514C207.196 201.514 206.236 201.695 205.404 202.058C204.572 202.421 203.825 202.965 203.164 203.69C204.444 203.541 206.044 203.466 207.964 203.466C208.753 203.466 209.308 203.37 209.628 203.178C209.948 202.986 210.108 202.741 210.108 202.442C210.108 202.186 209.948 201.973 209.628 201.802C209.308 201.61 208.86 201.514 208.284 201.514ZM204.924 208.618C206.118 208.618 207.196 208.394 208.156 207.946C209.116 207.477 209.777 206.869 210.14 206.122V205.29C209.628 205.546 209.062 205.749 208.444 205.898C207.825 206.026 207.078 206.154 206.204 206.282L205.052 206.474C203.857 206.709 203.26 207.114 203.26 207.69C203.26 208.309 203.814 208.618 204.924 208.618ZM239.81 196.202C239.704 198.591 239.65 201.493 239.65 204.906C239.65 208.298 239.704 211.199 239.81 213.61H232.802L232.866 210.122C231.245 211.082 229.496 211.562 227.618 211.562C225.165 211.562 223.384 210.847 222.274 209.418C221.186 207.967 220.642 206.079 220.642 203.754V201.674C220.642 199.178 220.6 197.354 220.514 196.202H227.17C227.064 198.826 227.01 201.023 227.01 202.794C227.01 203.989 227.234 204.863 227.682 205.418C228.152 205.951 228.898 206.218 229.922 206.218C230.434 206.218 230.946 206.101 231.458 205.866C231.992 205.61 232.472 205.279 232.898 204.874C232.898 200.33 232.866 197.439 232.802 196.202H239.81ZM252.662 213.994C249.014 213.994 246.326 213.162 244.598 211.498C242.891 209.813 242.038 207.605 242.038 204.874C242.038 202.207 242.891 200.042 244.598 198.378C246.326 196.714 249.014 195.882 252.662 195.882C255.115 195.882 257.163 196.287 258.806 197.098C260.47 197.887 261.697 198.965 262.486 200.33C263.275 201.674 263.67 203.189 263.67 204.874C263.67 207.626 262.753 209.834 260.918 211.498C259.105 213.162 256.353 213.994 252.662 213.994ZM252.79 208.554C254.177 208.554 255.211 208.223 255.894 207.562C256.577 206.901 256.918 206.015 256.918 204.906C256.918 203.861 256.577 203.007 255.894 202.346C255.211 201.663 254.177 201.322 252.79 201.322C251.403 201.322 250.39 201.653 249.75 202.314C249.11 202.975 248.79 203.839 248.79 204.906C248.79 206.015 249.11 206.901 249.75 207.562C250.39 208.223 251.403 208.554 252.79 208.554ZM290.337 196.202L291.553 213.674H285.345L284.961 201.162L282.529 213.674H274.945L272.481 201.322L272.129 213.674H265.921L267.137 196.202H276.609L278.689 207.626L280.545 196.202H290.337Z" fill="white"/>
<rect width="415" height="72" rx="5" fill="#5200FF"/>
<path d="M203.453 44.4C210.386 44.016 215.762 43.5893 219.581 43.12C219.218 44.2293 218.941 45.4027 218.749 46.64C218.557 47.8773 218.461 48.9973 218.461 50H195.581L195.549 49.328C195.549 47.2373 196.157 45.424 197.373 43.888C198.61 42.352 200.327 40.9333 202.525 39.632C203.165 39.248 204.167 38.7573 205.533 38.16C207.303 37.392 208.669 36.72 209.629 36.144C210.589 35.5467 211.069 34.96 211.069 34.384C211.069 33.6587 210.77 33.0827 210.173 32.656C209.575 32.2293 208.647 32.016 207.389 32.016C206.002 32.016 204.946 32.368 204.221 33.072C203.517 33.776 203.165 34.672 203.165 35.76C203.165 36.1013 203.197 36.4533 203.261 36.816C200.573 36.4747 197.959 36.24 195.421 36.112C195.421 34.2987 195.89 32.6667 196.829 31.216C197.789 29.744 199.218 28.5813 201.117 27.728C203.037 26.8747 205.383 26.448 208.157 26.448C210.695 26.448 212.807 26.8 214.493 27.504C216.199 28.1867 217.447 29.0613 218.237 30.128C219.047 31.1733 219.453 32.2507 219.453 33.36C219.453 34.64 219.165 35.7387 218.589 36.656C218.034 37.5733 217.223 38.3947 216.157 39.12C215.111 39.824 213.703 40.592 211.933 41.424C211.677 41.552 211.261 41.7013 210.685 41.872C210.109 42.0213 209.746 42.1173 209.597 42.16C208.082 42.608 206.877 42.9813 205.981 43.28C205.085 43.5787 204.242 43.952 203.453 44.4Z" fill="white"/>
<line x1="52.3098" y1="49.5933" x2="52.3098" y2="21.2738" stroke="white" stroke-dasharray="4 4"/>
<line x1="358.336" y1="49.5933" x2="358.336" y2="21.2738" stroke="white" stroke-dasharray="4 4"/>
<defs>
<clipPath id="clip0_258_645">
<rect y="71" width="415" height="233" rx="5" fill="white"/>
</clipPath>
</defs>
</svg>
