<svg width="413" height="305" viewBox="0 0 413 305" fill="none" xmlns="http://www.w3.org/2000/svg">
<g clip-path="url(#clip0_258_662)">
<rect y="72" width="413" height="233" rx="5" fill="#AB84FF"/>
<line x1="66.5" y1="73.5" x2="345.5" y2="73.5" stroke="white" stroke-linecap="round" stroke-dasharray="10 10"/>
</g>
<path d="M127.261 146.224C128.029 146.075 128.786 146 129.533 146C130.834 146 131.89 146.224 132.701 146.672C133.533 147.099 134.13 147.653 134.493 148.336C134.856 148.997 135.037 149.691 135.037 150.416C135.037 152.101 134.482 153.541 133.373 154.736C132.264 155.909 130.76 156.805 128.861 157.424C126.962 158.021 124.85 158.32 122.525 158.32C115.784 158.32 111.421 155.973 109.437 151.28L111.229 150.832C112.552 150.512 113.672 150.213 114.589 149.936C115.528 149.637 116.349 149.307 117.053 148.944C117.48 150.011 118.088 150.779 118.877 151.248C119.688 151.696 120.797 151.92 122.205 151.92C123.698 151.92 124.914 151.749 125.853 151.408C126.792 151.067 127.261 150.555 127.261 149.872C127.261 149.509 127.08 149.232 126.717 149.04C126.354 148.848 125.778 148.72 124.989 148.656C124.2 148.571 123.09 148.528 121.661 148.528H119.229V142.928H120.701C122.322 142.928 123.645 142.864 124.669 142.736C125.693 142.587 126.205 142.277 126.205 141.808C126.205 141.275 125.928 140.848 125.373 140.528C124.84 140.187 123.997 140.016 122.845 140.016C121.352 140.016 120.136 140.325 119.197 140.944C118.28 141.563 117.565 142.459 117.053 143.632C114.77 142.715 112.338 142.064 109.757 141.68C110.781 139.376 112.349 137.595 114.461 136.336C116.594 135.077 119.336 134.448 122.685 134.448C124.861 134.448 126.813 134.736 128.541 135.312C130.29 135.867 131.656 136.645 132.637 137.648C133.64 138.651 134.141 139.771 134.141 141.008C134.141 141.733 133.97 142.384 133.629 142.96C133.288 143.515 132.616 144.069 131.613 144.624C130.61 145.157 129.16 145.691 127.261 146.224ZM158.104 152.688C158.104 153.413 158.19 153.925 158.36 154.224C158.531 154.523 158.872 154.736 159.384 154.864L159.256 157.872C158.574 157.979 157.976 158.053 157.464 158.096C156.974 158.139 156.312 158.16 155.48 158.16C153.646 158.16 152.43 157.755 151.832 156.944C151.235 156.112 150.936 155.056 150.936 153.776V152.976C150.318 154.725 149.411 156.027 148.216 156.88C147.043 157.733 145.539 158.16 143.704 158.16C141.571 158.16 139.96 157.733 138.872 156.88C137.806 156.027 137.272 154.757 137.272 153.072C137.272 151.685 137.731 150.597 138.648 149.808C139.566 149.019 140.984 148.475 142.904 148.176C141.283 147.024 139.662 146.021 138.04 145.168C139.32 143.547 140.782 142.32 142.424 141.488C144.067 140.635 146.062 140.208 148.408 140.208C151.694 140.208 154.126 140.923 155.704 142.352C157.304 143.76 158.104 145.936 158.104 148.88V152.688ZM149.08 145.84C147.992 145.84 147.032 146.021 146.2 146.384C145.368 146.747 144.622 147.291 143.96 148.016C145.24 147.867 146.84 147.792 148.76 147.792C149.55 147.792 150.104 147.696 150.424 147.504C150.744 147.312 150.904 147.067 150.904 146.768C150.904 146.512 150.744 146.299 150.424 146.128C150.104 145.936 149.656 145.84 149.08 145.84ZM145.72 152.944C146.915 152.944 147.992 152.72 148.952 152.272C149.912 151.803 150.574 151.195 150.936 150.448V149.616C150.424 149.872 149.859 150.075 149.24 150.224C148.622 150.352 147.875 150.48 147 150.608L145.848 150.8C144.654 151.035 144.056 151.44 144.056 152.016C144.056 152.635 144.611 152.944 145.72 152.944ZM177.663 149.648C178.623 150.416 179.359 151.28 179.871 152.24C180.383 153.2 180.863 154.352 181.311 155.696C181.759 156.869 182.079 157.637 182.271 158H174.559C174.495 157.851 174.367 157.381 174.175 156.592C174.005 155.803 173.834 155.173 173.663 154.704C173.493 154.213 173.237 153.787 172.895 153.424C172.362 152.848 171.765 152.475 171.103 152.304C170.442 152.133 169.461 152.048 168.159 152.048V158H161.311C161.418 155.568 161.471 152.656 161.471 149.264C161.471 145.872 161.418 142.96 161.311 140.528H168.159V146.8H168.287C170.826 144.261 172.671 142.171 173.823 140.528H182.271L174.783 147.984C175.893 148.453 176.853 149.008 177.663 149.648ZM204.073 152.688C204.073 153.413 204.159 153.925 204.329 154.224C204.5 154.523 204.841 154.736 205.353 154.864L205.225 157.872C204.543 157.979 203.945 158.053 203.433 158.096C202.943 158.139 202.281 158.16 201.449 158.16C199.615 158.16 198.399 157.755 197.801 156.944C197.204 156.112 196.905 155.056 196.905 153.776V152.976C196.287 154.725 195.38 156.027 194.185 156.88C193.012 157.733 191.508 158.16 189.673 158.16C187.54 158.16 185.929 157.733 184.841 156.88C183.775 156.027 183.241 154.757 183.241 153.072C183.241 151.685 183.7 150.597 184.617 149.808C185.535 149.019 186.953 148.475 188.873 148.176C187.252 147.024 185.631 146.021 184.009 145.168C185.289 143.547 186.751 142.32 188.393 141.488C190.036 140.635 192.031 140.208 194.377 140.208C197.663 140.208 200.095 140.923 201.673 142.352C203.273 143.76 204.073 145.936 204.073 148.88V152.688ZM195.049 145.84C193.961 145.84 193.001 146.021 192.169 146.384C191.337 146.747 190.591 147.291 189.929 148.016C191.209 147.867 192.809 147.792 194.729 147.792C195.519 147.792 196.073 147.696 196.393 147.504C196.713 147.312 196.873 147.067 196.873 146.768C196.873 146.512 196.713 146.299 196.393 146.128C196.073 145.936 195.625 145.84 195.049 145.84ZM191.689 152.944C192.884 152.944 193.961 152.72 194.921 152.272C195.881 151.803 196.543 151.195 196.905 150.448V149.616C196.393 149.872 195.828 150.075 195.209 150.224C194.591 150.352 193.844 150.48 192.969 150.608L191.817 150.8C190.623 151.035 190.025 151.44 190.025 152.016C190.025 152.635 190.58 152.944 191.689 152.944ZM225.424 148.464C225.979 148.784 226.469 149.179 226.896 149.648C227.621 150.416 228.176 151.269 228.56 152.208C228.944 153.125 229.328 154.288 229.712 155.696C229.989 156.72 230.224 157.488 230.416 158H224.24C224.155 157.701 224.048 157.211 223.92 156.528C223.792 155.76 223.664 155.141 223.536 154.672C223.408 154.203 223.216 153.787 222.96 153.424C222.619 152.912 222.245 152.507 221.84 152.208C221.435 151.888 220.965 151.653 220.432 151.504C220.432 152.933 220.475 155.099 220.56 158H215.792C215.877 155.141 215.92 152.997 215.92 151.568C215.451 151.717 215.035 151.952 214.672 152.272C214.309 152.571 213.957 152.955 213.616 153.424C213.36 153.787 213.168 154.203 213.04 154.672C212.912 155.141 212.784 155.76 212.656 156.528C212.528 157.211 212.421 157.701 212.336 158H206.16C206.352 157.488 206.587 156.72 206.864 155.696C207.248 154.288 207.632 153.125 208.016 152.208C208.4 151.269 208.955 150.416 209.68 149.648C210.107 149.179 210.597 148.784 211.152 148.464L206 140.528H212.432C213.328 142.576 214.491 144.635 215.92 146.704C215.877 143.931 215.835 141.872 215.792 140.528H220.56C220.475 143.344 220.432 145.456 220.432 146.864L220.528 146.896C221.979 144.827 223.184 142.704 224.144 140.528H230.576L225.424 148.464ZM251.874 140.528C251.768 143.621 251.714 146.416 251.714 148.912C251.714 151.365 251.768 154.16 251.874 157.296H245.314L245.666 146.224L240.77 157.296H231.842C231.97 154.48 232.034 151.685 232.034 148.912C232.034 146.096 231.97 143.301 231.842 140.528H238.146L237.826 151.888L242.722 140.528H251.874ZM273.86 146.544C270.66 146.459 268.335 146.405 266.884 146.384V158H260.1V146.384C258.671 146.405 256.356 146.459 253.156 146.544V140.528H273.86V146.544ZM290.489 150H280.057C280.228 150.939 280.644 151.707 281.305 152.304C281.988 152.88 282.948 153.168 284.185 153.168C285.081 153.168 285.924 152.997 286.713 152.656C287.503 152.293 288.132 151.792 288.601 151.152C290.031 151.856 291.929 152.613 294.297 153.424C293.636 154.917 292.431 156.112 290.681 157.008C288.953 157.883 286.692 158.32 283.897 158.32C280.271 158.32 277.583 157.488 275.833 155.824C274.105 154.139 273.241 151.931 273.241 149.2C273.241 146.533 274.105 144.368 275.833 142.704C277.561 141.04 280.249 140.208 283.897 140.208C286.073 140.208 287.961 140.571 289.561 141.296C291.161 142.021 292.388 143.035 293.241 144.336C294.095 145.616 294.521 147.088 294.521 148.752C294.521 149.307 294.5 149.723 294.457 150H290.489ZM284.345 145.04C283.279 145.04 282.404 145.243 281.721 145.648C281.039 146.053 280.559 146.608 280.281 147.312H287.833C287.577 146.629 287.161 146.085 286.585 145.68C286.009 145.253 285.263 145.04 284.345 145.04ZM112.956 178.528C112.849 181.771 112.796 184.683 112.796 187.264C112.796 189.845 112.849 192.757 112.956 196H106.012V190.176H99.7396V196H92.7956C92.9023 193.568 92.9556 190.656 92.9556 187.264C92.9556 183.872 92.9023 180.96 92.7956 178.528H99.7396V184.352H106.012V178.528H112.956ZM136.026 190.688C136.026 191.413 136.112 191.925 136.282 192.224C136.453 192.523 136.794 192.736 137.306 192.864L137.178 195.872C136.496 195.979 135.898 196.053 135.386 196.096C134.896 196.139 134.234 196.16 133.402 196.16C131.568 196.16 130.352 195.755 129.754 194.944C129.157 194.112 128.858 193.056 128.858 191.776V190.976C128.24 192.725 127.333 194.027 126.138 194.88C124.965 195.733 123.461 196.16 121.626 196.16C119.493 196.16 117.882 195.733 116.794 194.88C115.728 194.027 115.194 192.757 115.194 191.072C115.194 189.685 115.653 188.597 116.57 187.808C117.488 187.019 118.906 186.475 120.826 186.176C119.205 185.024 117.584 184.021 115.962 183.168C117.242 181.547 118.704 180.32 120.346 179.488C121.989 178.635 123.984 178.208 126.33 178.208C129.616 178.208 132.048 178.923 133.626 180.352C135.226 181.76 136.026 183.936 136.026 186.88V190.688ZM127.002 183.84C125.914 183.84 124.954 184.021 124.122 184.384C123.29 184.747 122.544 185.291 121.882 186.016C123.162 185.867 124.762 185.792 126.682 185.792C127.472 185.792 128.026 185.696 128.346 185.504C128.666 185.312 128.826 185.067 128.826 184.768C128.826 184.512 128.666 184.299 128.346 184.128C128.026 183.936 127.578 183.84 127.002 183.84ZM123.642 190.944C124.837 190.944 125.914 190.72 126.874 190.272C127.834 189.803 128.496 189.195 128.858 188.448V187.616C128.346 187.872 127.781 188.075 127.162 188.224C126.544 188.352 125.797 188.48 124.922 188.608L123.77 188.8C122.576 189.035 121.978 189.44 121.978 190.016C121.978 190.635 122.533 190.944 123.642 190.944ZM152.449 180.128C154.305 180.128 155.937 180.48 157.345 181.184C158.774 181.867 159.862 182.784 160.609 183.936C161.377 185.088 161.761 186.357 161.761 187.744C161.761 189.493 161.26 191.019 160.257 192.32C159.254 193.621 157.889 194.613 156.161 195.296C154.433 195.979 152.502 196.32 150.369 196.32C148.193 196.32 146.262 195.851 144.577 194.912C142.892 193.952 141.58 192.629 140.641 190.944C139.702 189.259 139.233 187.339 139.233 185.184C139.233 180.917 140.3 177.717 142.433 175.584C144.566 173.429 147.489 172.213 151.201 171.936L153.441 171.84C155.681 171.755 157.249 171.648 158.145 171.52V177.6C157.398 177.707 156.161 177.803 154.433 177.888C153.068 177.973 152.086 178.048 151.489 178.112C150.38 178.261 149.334 178.592 148.353 179.104C147.372 179.595 146.593 180.16 146.017 180.8C145.441 181.419 145.153 181.963 145.153 182.432C146.113 181.643 147.244 181.067 148.545 180.704C149.846 180.32 151.148 180.128 152.449 180.128ZM150.689 184.256C149.537 184.256 148.609 184.565 147.905 185.184C147.201 185.781 146.849 186.731 146.849 188.032C146.849 189.333 147.201 190.283 147.905 190.88C148.609 191.477 149.537 191.776 150.689 191.776C151.841 191.776 152.769 191.477 153.473 190.88C154.177 190.283 154.529 189.333 154.529 188.032C154.529 186.731 154.177 185.781 153.473 185.184C152.769 184.565 151.841 184.256 150.689 184.256ZM174.318 196.32C170.67 196.32 167.982 195.488 166.254 193.824C164.548 192.139 163.694 189.931 163.694 187.2C163.694 184.533 164.548 182.368 166.254 180.704C167.982 179.04 170.67 178.208 174.318 178.208C176.772 178.208 178.82 178.613 180.462 179.424C182.126 180.213 183.353 181.291 184.142 182.656C184.932 184 185.326 185.515 185.326 187.2C185.326 189.952 184.409 192.16 182.574 193.824C180.761 195.488 178.009 196.32 174.318 196.32ZM174.446 190.88C175.833 190.88 176.868 190.549 177.55 189.888C178.233 189.227 178.574 188.341 178.574 187.232C178.574 186.187 178.233 185.333 177.55 184.672C176.868 183.989 175.833 183.648 174.446 183.648C173.06 183.648 172.046 183.979 171.406 184.64C170.766 185.301 170.446 186.165 170.446 187.232C170.446 188.341 170.766 189.227 171.406 189.888C172.046 190.549 173.06 190.88 174.446 190.88ZM201.561 178.208C202.948 178.208 204.196 178.603 205.305 179.392C206.414 180.181 207.278 181.259 207.897 182.624C208.516 183.968 208.825 185.451 208.825 187.072C208.825 188.672 208.516 190.187 207.897 191.616C207.278 193.024 206.404 194.165 205.273 195.04C204.164 195.893 202.894 196.32 201.465 196.32C199.801 196.32 198.372 195.979 197.177 195.296C196.004 194.592 195.129 193.515 194.553 192.064C194.553 193.28 194.596 195.232 194.681 197.92C194.766 200.523 194.809 202.357 194.809 203.424H187.577C187.705 199.456 187.769 195.307 187.769 190.976C187.769 186.645 187.705 182.496 187.577 178.528H193.721L194.649 182.528C195.246 181.035 196.142 179.947 197.337 179.264C198.532 178.56 199.94 178.208 201.561 178.208ZM198.137 190.56C199.097 190.56 199.897 190.261 200.537 189.664C201.198 189.045 201.529 188.245 201.529 187.264C201.529 186.176 201.23 185.291 200.633 184.608C200.036 183.925 199.225 183.584 198.201 183.584C197.028 183.584 196.142 183.872 195.545 184.448C194.948 185.003 194.649 185.941 194.649 187.264C194.649 188.011 194.841 188.64 195.225 189.152C195.609 189.643 196.068 190.005 196.601 190.24C197.134 190.453 197.646 190.56 198.137 190.56ZM237.515 178.528C237.408 181.621 237.355 184.416 237.355 186.912C237.355 189.365 237.408 192.16 237.515 195.296H230.955L231.307 184.224L226.411 195.296H217.483C217.611 192.48 217.675 189.685 217.675 186.912C217.675 184.096 217.611 181.301 217.483 178.528H223.787L223.467 189.888L228.363 178.528H237.515ZM254.125 187.04C254.338 187.019 254.637 187.008 255.021 187.008C256.45 187.008 257.496 187.339 258.157 188C258.84 188.661 259.181 189.44 259.181 190.336C259.181 192.235 258.317 193.707 256.589 194.752C254.861 195.797 252.642 196.32 249.933 196.32C247.565 196.32 245.474 195.915 243.661 195.104C241.869 194.293 240.568 192.928 239.757 191.008L241.133 190.656C243.117 190.165 244.589 189.696 245.549 189.248C245.89 189.909 246.37 190.421 246.989 190.784C247.608 191.125 248.429 191.296 249.453 191.296C250.605 191.296 251.48 191.189 252.077 190.976C252.696 190.763 253.005 190.411 253.005 189.92C253.005 189.536 252.664 189.269 251.981 189.12C251.298 188.971 250.317 188.896 249.037 188.896H247.213V184.672H248.301C249.474 184.672 250.413 184.619 251.117 184.512C251.821 184.405 252.173 184.171 252.173 183.808C252.173 183.445 251.97 183.157 251.565 182.944C251.16 182.731 250.616 182.624 249.933 182.624C248.824 182.624 247.949 182.827 247.309 183.232C246.69 183.637 246.104 184.299 245.549 185.216C243.864 184.512 242.018 184.011 240.013 183.712C241.656 180.064 245.069 178.24 250.253 178.24C251.768 178.24 253.154 178.464 254.413 178.912C255.672 179.339 256.664 179.936 257.389 180.704C258.114 181.451 258.477 182.293 258.477 183.232C258.477 185.28 257.026 186.549 254.125 187.04ZM275.859 190.4C282.792 190.016 288.168 189.589 291.987 189.12C291.624 190.229 291.347 191.403 291.155 192.64C290.963 193.877 290.867 194.997 290.867 196H267.987L267.955 195.328C267.955 193.237 268.563 191.424 269.779 189.888C271.016 188.352 272.734 186.933 274.931 185.632C275.571 185.248 276.574 184.757 277.939 184.16C279.71 183.392 281.075 182.72 282.035 182.144C282.995 181.547 283.475 180.96 283.475 180.384C283.475 179.659 283.176 179.083 282.579 178.656C281.982 178.229 281.054 178.016 279.795 178.016C278.408 178.016 277.352 178.368 276.627 179.072C275.923 179.776 275.571 180.672 275.571 181.76C275.571 182.101 275.603 182.453 275.667 182.816C272.979 182.475 270.366 182.24 267.827 182.112C267.827 180.299 268.296 178.667 269.235 177.216C270.195 175.744 271.624 174.581 273.523 173.728C275.443 172.875 277.79 172.448 280.563 172.448C283.102 172.448 285.214 172.8 286.899 173.504C288.606 174.187 289.854 175.061 290.643 176.128C291.454 177.173 291.859 178.251 291.859 179.36C291.859 180.64 291.571 181.739 290.995 182.656C290.44 183.573 289.63 184.395 288.563 185.12C287.518 185.824 286.11 186.592 284.339 187.424C284.083 187.552 283.667 187.701 283.091 187.872C282.515 188.021 282.152 188.117 282.003 188.16C280.488 188.608 279.283 188.981 278.387 189.28C277.491 189.579 276.648 189.952 275.859 190.4ZM307.41 190.08C309.33 190.037 310.748 189.995 311.666 189.952V196H294.738V189.952C297.042 190.037 298.78 190.08 299.954 190.08V179.04C299.186 180.725 297.618 181.813 295.25 182.304C295.186 179.787 294.951 177.493 294.546 175.424C296.252 175.189 297.436 174.901 298.098 174.56C298.78 174.197 299.303 173.803 299.666 173.376C300.05 172.949 300.306 172.661 300.434 172.512V172.448H307.41V190.08ZM42.5482 225.328C46.1962 225.328 48.0202 226.491 48.0202 228.816C48.0202 230.48 47.3802 231.76 46.1002 232.656C44.8416 233.552 42.5589 234 39.2522 234H28.4362C28.5429 231.568 28.5962 228.656 28.5962 225.264C28.5962 221.872 28.5429 218.96 28.4362 216.528H35.0602V216.56H39.2202C41.2256 216.56 42.7936 216.731 43.9242 217.072C45.0762 217.392 45.8869 217.861 46.3562 218.48C46.8256 219.099 47.0602 219.888 47.0602 220.848C47.0602 223.003 45.5562 224.496 42.5482 225.328ZM35.0602 220.944V223.184H37.4922C38.4736 223.184 39.1669 223.099 39.5722 222.928C39.9776 222.736 40.1802 222.405 40.1802 221.936C40.1802 221.573 39.9669 221.317 39.5402 221.168C39.1349 221.019 38.4522 220.944 37.4922 220.944H35.0602ZM37.4922 229.584C38.7082 229.584 39.5402 229.499 39.9882 229.328C40.4362 229.136 40.6602 228.805 40.6602 228.336C40.6602 227.931 40.4256 227.632 39.9562 227.44C39.4869 227.248 38.6656 227.152 37.4922 227.152H35.0602V229.584H37.4922ZM70.2807 216.528C70.1741 219.621 70.1207 222.416 70.1207 224.912C70.1207 227.365 70.1741 230.16 70.2807 233.296H63.7207L64.0727 222.224L59.1767 233.296H50.2487C50.3767 230.48 50.4407 227.685 50.4407 224.912C50.4407 222.096 50.3767 219.301 50.2487 216.528H56.5527L56.2327 227.888L61.1287 216.528H70.2807ZM92.2665 222.544C89.0665 222.459 86.7412 222.405 85.2905 222.384V234H78.5065V222.384C77.0772 222.405 74.7625 222.459 71.5625 222.544V216.528H92.2665V222.544ZM114.073 228.688C114.073 229.413 114.159 229.925 114.329 230.224C114.5 230.523 114.841 230.736 115.353 230.864L115.225 233.872C114.543 233.979 113.945 234.053 113.433 234.096C112.943 234.139 112.281 234.16 111.449 234.16C109.615 234.16 108.399 233.755 107.801 232.944C107.204 232.112 106.905 231.056 106.905 229.776V228.976C106.287 230.725 105.38 232.027 104.185 232.88C103.012 233.733 101.508 234.16 99.6732 234.16C97.5399 234.16 95.9292 233.733 94.8412 232.88C93.7746 232.027 93.2412 230.757 93.2412 229.072C93.2412 227.685 93.6999 226.597 94.6172 225.808C95.5346 225.019 96.9532 224.475 98.8732 224.176C97.2519 223.024 95.6306 222.021 94.0092 221.168C95.2892 219.547 96.7506 218.32 98.3932 217.488C100.036 216.635 102.031 216.208 104.377 216.208C107.663 216.208 110.095 216.923 111.673 218.352C113.273 219.76 114.073 221.936 114.073 224.88V228.688ZM105.049 221.84C103.961 221.84 103.001 222.021 102.169 222.384C101.337 222.747 100.591 223.291 99.9292 224.016C101.209 223.867 102.809 223.792 104.729 223.792C105.519 223.792 106.073 223.696 106.393 223.504C106.713 223.312 106.873 223.067 106.873 222.768C106.873 222.512 106.713 222.299 106.393 222.128C106.073 221.936 105.625 221.84 105.049 221.84ZM101.689 228.944C102.884 228.944 103.961 228.72 104.921 228.272C105.881 227.803 106.543 227.195 106.905 226.448V225.616C106.393 225.872 105.828 226.075 105.209 226.224C104.591 226.352 103.844 226.48 102.969 226.608L101.817 226.8C100.623 227.035 100.025 227.44 100.025 228.016C100.025 228.635 100.58 228.944 101.689 228.944ZM141.696 216.528L142.912 234H136.704L136.32 221.488L133.888 234H126.304L123.84 221.648L123.488 234H117.28L118.496 216.528H127.968L130.048 227.952L131.904 216.528H141.696ZM165.499 216.528C165.393 219.621 165.339 222.416 165.339 224.912C165.339 227.365 165.393 230.16 165.499 233.296H158.939L159.291 222.224L154.395 233.296H145.467C145.595 230.48 145.659 227.685 145.659 224.912C145.659 222.096 145.595 219.301 145.467 216.528H151.771L151.451 227.888L156.347 216.528H165.499ZM188.221 216.528C188.115 219.771 188.061 222.683 188.061 225.264C188.061 227.845 188.115 230.757 188.221 234H181.277V228.176H175.005V234H168.061C168.168 231.568 168.221 228.656 168.221 225.264C168.221 221.872 168.168 218.96 168.061 216.528H175.005V222.352H181.277V216.528H188.221ZM210.94 216.528C210.833 219.771 210.78 222.683 210.78 225.264C210.78 227.845 210.833 230.757 210.94 234H203.996V228.176H197.724V234H190.78C190.887 231.568 190.94 228.656 190.94 225.264C190.94 221.872 190.887 218.96 190.78 216.528H197.724V222.352H203.996V216.528H210.94ZM224.603 220.432C227.781 220.432 230 221.061 231.259 222.32C232.517 223.557 233.147 225.285 233.147 227.504C233.147 229.573 232.517 231.173 231.259 232.304C230.021 233.413 227.803 233.968 224.603 233.968H220.347V234H213.499C213.605 231.568 213.659 228.656 213.659 225.264C213.659 221.872 213.605 218.96 213.499 216.528H220.347V220.432H224.603ZM241.403 216.528C241.296 218.917 241.243 221.819 241.243 225.232C241.243 228.624 241.296 231.525 241.403 233.936H234.395C234.459 229.648 234.491 226.043 234.491 223.12C234.491 220.197 234.459 218 234.395 216.528H241.403ZM222.683 228.88C224.197 228.88 225.253 228.763 225.851 228.528C226.448 228.293 226.747 227.835 226.747 227.152C226.747 226.469 226.437 226.011 225.819 225.776C225.2 225.52 224.155 225.392 222.683 225.392L220.347 225.424V228.88H222.683ZM257.823 225.04L264.543 234H256.607C256.202 233.189 255.455 232.005 254.367 230.448L253.631 229.392C253.503 229.584 253.354 229.787 253.183 230C253.034 230.213 252.885 230.448 252.735 230.704C252.309 231.301 251.903 231.888 251.519 232.464C251.157 233.04 250.858 233.552 250.623 234H242.687L249.407 225.04L242.943 216.528H250.847C251.146 217.125 251.722 218.053 252.575 219.312L253.631 220.912L254.527 219.536C255.423 218.192 256.042 217.189 256.383 216.528H264.287L257.823 225.04ZM278.713 225.264C278.756 226.352 279.097 227.227 279.737 227.888C280.399 228.549 281.369 228.88 282.649 228.88C283.353 228.88 283.983 228.752 284.537 228.496C285.092 228.219 285.604 227.813 286.073 227.28C287.887 227.984 290.009 228.592 292.441 229.104C291.737 230.747 290.543 232.027 288.857 232.944C287.193 233.861 285.028 234.32 282.361 234.32C278.799 234.32 276.164 233.488 274.457 231.824C272.751 230.16 271.897 227.973 271.897 225.264C271.897 222.555 272.751 220.368 274.457 218.704C276.164 217.04 278.799 216.208 282.361 216.208C285.028 216.208 287.193 216.667 288.857 217.584C290.543 218.501 291.737 219.781 292.441 221.424C290.543 221.829 288.42 222.437 286.073 223.248C285.604 222.715 285.092 222.32 284.537 222.064C283.983 221.787 283.353 221.648 282.649 221.648C281.369 221.648 280.399 221.979 279.737 222.64C279.097 223.301 278.756 224.176 278.713 225.264ZM314.267 222.544C311.067 222.459 308.741 222.405 307.291 222.384V234H300.507V222.384C299.077 222.405 296.763 222.459 293.562 222.544V216.528H314.267V222.544ZM335.593 216.528C335.487 219.621 335.433 222.416 335.433 224.912C335.433 227.365 335.487 230.16 335.593 233.296H329.033L329.385 222.224L324.489 233.296H315.561C315.689 230.48 315.753 227.685 315.753 224.912C315.753 222.096 315.689 219.301 315.561 216.528H321.865L321.545 227.888L326.441 216.528H335.593ZM354.507 225.648C355.467 226.416 356.203 227.28 356.715 228.24C357.227 229.2 357.707 230.352 358.155 231.696C358.603 232.869 358.923 233.637 359.115 234H351.403C351.339 233.851 351.211 233.381 351.019 232.592C350.848 231.803 350.678 231.173 350.507 230.704C350.336 230.213 350.08 229.787 349.739 229.424C349.206 228.848 348.608 228.475 347.947 228.304C347.286 228.133 346.304 228.048 345.003 228.048V234H338.155C338.262 231.568 338.315 228.656 338.315 225.264C338.315 221.872 338.262 218.96 338.155 216.528H345.003V222.8H345.131C347.67 220.261 349.515 218.171 350.667 216.528H359.115L351.627 223.984C352.736 224.453 353.696 225.008 354.507 225.648ZM380.917 228.688C380.917 229.413 381.002 229.925 381.173 230.224C381.344 230.523 381.685 230.736 382.197 230.864L382.069 233.872C381.386 233.979 380.789 234.053 380.277 234.096C379.786 234.139 379.125 234.16 378.293 234.16C376.458 234.16 375.242 233.755 374.645 232.944C374.048 232.112 373.749 231.056 373.749 229.776V228.976C373.13 230.725 372.224 232.027 371.029 232.88C369.856 233.733 368.352 234.16 366.517 234.16C364.384 234.16 362.773 233.733 361.685 232.88C360.618 232.027 360.085 230.757 360.085 229.072C360.085 227.685 360.544 226.597 361.461 225.808C362.378 225.019 363.797 224.475 365.717 224.176C364.096 223.024 362.474 222.021 360.853 221.168C362.133 219.547 363.594 218.32 365.237 217.488C366.88 216.635 368.874 216.208 371.221 216.208C374.506 216.208 376.938 216.923 378.517 218.352C380.117 219.76 380.917 221.936 380.917 224.88V228.688ZM371.893 221.84C370.805 221.84 369.845 222.021 369.013 222.384C368.181 222.747 367.434 223.291 366.773 224.016C368.053 223.867 369.653 223.792 371.573 223.792C372.362 223.792 372.917 223.696 373.237 223.504C373.557 223.312 373.717 223.067 373.717 222.768C373.717 222.512 373.557 222.299 373.237 222.128C372.917 221.936 372.469 221.84 371.893 221.84ZM368.533 228.944C369.728 228.944 370.805 228.72 371.765 228.272C372.725 227.803 373.386 227.195 373.749 226.448V225.616C373.237 225.872 372.672 226.075 372.053 226.224C371.434 226.352 370.688 226.48 369.813 226.608L368.661 226.8C367.466 227.035 366.869 227.44 366.869 228.016C366.869 228.635 367.424 228.944 368.533 228.944Z" fill="white"/>
<rect width="413" height="72" rx="5" fill="#5200FF"/>
<path d="M211.542 38.224C212.31 38.0747 213.068 38 213.814 38C215.116 38 216.172 38.224 216.982 38.672C217.814 39.0987 218.412 39.6533 218.774 40.336C219.137 40.9973 219.318 41.6907 219.318 42.416C219.318 44.1013 218.764 45.5413 217.654 46.736C216.545 47.9093 215.041 48.8053 213.142 49.424C211.244 50.0213 209.132 50.32 206.806 50.32C200.065 50.32 195.702 47.9733 193.718 43.28L195.51 42.832C196.833 42.512 197.953 42.2133 198.87 41.936C199.809 41.6373 200.63 41.3067 201.334 40.944C201.761 42.0107 202.369 42.7787 203.158 43.248C203.969 43.696 205.078 43.92 206.486 43.92C207.98 43.92 209.196 43.7493 210.134 43.408C211.073 43.0667 211.542 42.5547 211.542 41.872C211.542 41.5093 211.361 41.232 210.998 41.04C210.636 40.848 210.06 40.72 209.27 40.656C208.481 40.5707 207.372 40.528 205.942 40.528H203.51V34.928H204.982C206.604 34.928 207.926 34.864 208.95 34.736C209.974 34.5867 210.486 34.2773 210.486 33.808C210.486 33.2747 210.209 32.848 209.654 32.528C209.121 32.1867 208.278 32.016 207.126 32.016C205.633 32.016 204.417 32.3253 203.478 32.944C202.561 33.5627 201.846 34.4587 201.334 35.632C199.052 34.7147 196.62 34.064 194.038 33.68C195.062 31.376 196.63 29.5947 198.742 28.336C200.876 27.0773 203.617 26.448 206.966 26.448C209.142 26.448 211.094 26.736 212.822 27.312C214.572 27.8667 215.937 28.6453 216.918 29.648C217.921 30.6507 218.422 31.7707 218.422 33.008C218.422 33.7333 218.252 34.384 217.91 34.96C217.569 35.5147 216.897 36.0693 215.894 36.624C214.892 37.1573 213.441 37.6907 211.542 38.224Z" fill="white"/>
<line x1="52.3098" y1="49.5933" x2="52.3098" y2="21.2738" stroke="white" stroke-dasharray="4 4"/>
<line x1="358.336" y1="49.5933" x2="358.336" y2="21.2738" stroke="white" stroke-dasharray="4 4"/>
<defs>
<clipPath id="clip0_258_662">
<rect y="72" width="413" height="233" rx="5" fill="white"/>
</clipPath>
</defs>
</svg>
